<svg xmlns="http://www.w3.org/2000/svg" viewBox="0 0 24 24" fill="currentColor" aria-hidden="true">
  <path d="M12 2C6.477 2 2 6.59 2 12.253c0 4.53 2.865 8.374 6.839 9.73.5.095.682-.222.682-.493 0-.243-.009-.887-.014-1.741-2.782.616-3.369-1.386-3.369-1.386-.455-1.19-1.11-1.507-1.11-1.507-.908-.637.069-.624.069-.624 1.004.073 1.532 1.058 1.532 1.058.892 1.57 2.341 1.116 2.91.853.091-.663.35-1.116.636-1.373-2.22-.26-4.555-1.14-4.555-5.077 0-1.122.39-2.039 1.03-2.758-.103-.261-.447-1.312.098-2.736 0 0 .84-.276 2.75 1.053A9.33 9.33 0 0112 6.835a9.3 9.3 0 012.505.349c1.909-1.329 2.748-1.053 2.748-1.053.547 1.424.203 2.475.1 2.736.64.719 1.028 1.636 1.028 2.758 0 3.948-2.339 4.814-4.566 5.07.359.32.678.95.678 1.915 0 1.382-.012 2.497-.012 2.835 0 .274.18.593.688.492C19.138 20.624 22 16.781 22 12.253 22 6.59 17.523 2 12 2z"/>
</svg>
